<svg width="232" height="142" viewBox="0 0 232 142" fill="none" xmlns="http://www.w3.org/2000/svg">
<path fill-rule="evenodd" clip-rule="evenodd" d="M62.9658 66.1099C62.9658 65.0053 63.8613 64.1099 64.9658 64.1099H167.897C169.002 64.1099 169.897 65.0053 169.897 66.1099V118.721C169.897 119.826 169.002 120.721 167.897 120.721H64.9658C63.8613 120.721 62.9658 119.826 62.9658 118.721V66.1099ZM66.9658 68.1099V116.721H165.897V68.1099H66.9658Z" fill="#1A285D"/>
<path fill-rule="evenodd" clip-rule="evenodd" d="M56.8005 66.1099C56.8005 65.0053 57.696 64.1099 58.8005 64.1099H173.2C174.304 64.1099 175.2 65.0053 175.2 66.1099C175.2 67.2144 174.304 68.1099 173.2 68.1099H58.8005C57.696 68.1099 56.8005 67.2144 56.8005 66.1099Z" fill="#1A285D"/>
<path d="M161 62.0002H128C128 62.0002 129.192 54.8364 129.664 52.4768C130.413 48.7812 133.902 45.0002 137.923 45.0002H150.032C154.053 45.0002 158.06 46.7264 159.343 52.4768C160.627 58.2272 161 62.0002 161 62.0002Z" fill="#1A285D"/>
<path d="M144.5 43.0002C149.194 43.0002 153 39.1947 153 34.5002C153 29.8058 149.194 26.0002 144.5 26.0002C139.806 26.0002 136 29.8058 136 34.5002C136 39.1947 139.806 43.0002 144.5 43.0002Z" fill="#1A285D"/>
<path d="M102.956 92.0002H90.9775C88.1626 92.0002 85.7968 87.1419 85.7968 82.0391L84 56.6475C84 51.5752 89.3604 48.0002 94.3615 48.0002H102.986C107.957 48.0002 112 52.1252 112 57.1975L109.874 81.2141C109.904 86.3169 107.957 92.0002 102.956 92.0002Z" fill="#1A285D"/>
<path d="M97.1491 46.0739C102.359 46.0739 106.582 41.8637 106.582 36.6702C106.582 31.4768 102.359 27.2666 97.1491 27.2666C91.9394 27.2666 87.7161 31.4768 87.7161 36.6702C87.7161 41.8637 91.9394 46.0739 97.1491 46.0739Z" fill="#1A285D"/>
<path d="M94.0631 127.51H92.4074C90.4507 127.51 88.8853 125.923 88.8853 123.938V87.6121C88.8853 85.6279 90.4507 84.0405 92.4074 84.0405H94.0631C96.0199 84.0405 97.5853 85.6279 97.5853 87.6121V123.938C97.5853 125.892 95.9898 127.51 94.0631 127.51Z" fill="#1A285D"/>
<path d="M104.213 127.51H102.557C100.601 127.51 99.0352 125.923 99.0352 123.938V87.6121C99.0352 85.6279 100.601 84.0405 102.557 84.0405H104.213C106.17 84.0405 107.735 85.6279 107.735 87.6121V123.938C107.735 125.892 106.17 127.51 104.213 127.51Z" fill="#1A285D"/>
<path fill-rule="evenodd" clip-rule="evenodd" d="M107.229 53.2352C108.204 52.2574 109.787 52.2549 110.765 53.2297C110.983 53.4474 111.127 53.6694 111.173 53.7416C111.245 53.8519 111.309 53.9637 111.363 54.0606C111.472 54.2564 111.59 54.4896 111.711 54.7361C111.955 55.2346 112.257 55.8894 112.591 56.6309C113.259 58.1194 114.088 60.0344 114.891 61.9169C114.968 62.0989 115.046 62.2807 115.123 62.4619L115.762 59.9219C116.099 58.5829 117.457 57.7705 118.796 58.1073C120.135 58.4442 120.948 59.8027 120.611 61.1417L118.145 70.9448C117.882 71.9902 116.978 72.7493 115.903 72.8282C114.828 72.9072 113.824 72.2882 113.411 71.2925L115.72 70.3349C113.411 71.2925 113.411 71.2926 113.411 71.2925L113.149 70.6623C112.981 70.2598 112.741 69.684 112.451 68.9909C111.87 67.6043 111.09 65.7507 110.292 63.8792C109.492 62.0049 108.679 60.1246 108.03 58.6802C107.704 57.9553 107.428 57.3593 107.221 56.9351C107.118 56.7267 107.044 56.583 106.996 56.4948C106.265 55.5171 106.342 54.1254 107.229 53.2352Z" fill="#1A285D"/>
<path fill-rule="evenodd" clip-rule="evenodd" d="M86.8721 53.0792C87.9331 53.3864 88.5442 54.4956 88.2369 55.5566L85.1191 66.324L99.0344 60.1188C100.043 59.669 101.226 60.1221 101.676 61.1309C102.125 62.1397 101.672 63.3222 100.663 63.7721L82.8146 71.7313C82.1037 72.0484 81.2734 71.9241 80.6864 71.4128C80.0995 70.9015 79.8625 70.0961 80.079 69.3484L84.3948 54.444C84.702 53.383 85.8112 52.772 86.8721 53.0792Z" fill="#1A285D"/>
</svg>
