<svg width="232" height="142" viewBox="0 0 232 142" fill="none" xmlns="http://www.w3.org/2000/svg">
<path d="M154.93 131H86.4275C81.9255 131 78.3062 127.384 78.3062 122.886V31.6071C78.3062 27.1093 81.9255 23.4934 86.4275 23.4934H155.018C159.52 23.4934 163.139 27.1093 163.139 31.6071V122.798C163.139 127.296 159.432 131 154.93 131Z" fill="#1A285D"/>
<path d="M102.759 29.3141H95.2552C93.1366 29.3141 91.3711 27.5503 91.3711 25.4337V15.7325C91.3711 13.6159 93.1366 11.8521 95.2552 11.8521H102.759C104.877 11.8521 106.643 13.6159 106.643 15.7325V25.5219C106.555 27.5503 104.877 29.3141 102.759 29.3141Z" fill="#1A285D"/>
<path fill-rule="evenodd" clip-rule="evenodd" d="M95.2552 14.3521C94.5151 14.3521 93.8711 14.9988 93.8711 15.7325V25.4337C93.8711 26.1674 94.5151 26.8141 95.2552 26.8141H102.759C103.43 26.8141 104.088 26.2246 104.143 25.4542V15.7325C104.143 14.9988 103.499 14.3521 102.759 14.3521H95.2552ZM88.8711 15.7325C88.8711 12.233 91.7581 9.35205 95.2552 9.35205H102.759C106.256 9.35205 109.143 12.233 109.143 15.7325V25.5762L109.14 25.6306C108.998 28.897 106.313 31.8141 102.759 31.8141H95.2552C91.7581 31.8141 88.8711 28.9332 88.8711 25.4337V15.7325Z" fill="white"/>
<path d="M146.102 29.3141H138.599C136.48 29.3141 134.714 27.5503 134.714 25.4337V15.7325C134.714 13.6159 136.48 11.8521 138.599 11.8521H146.102C148.221 11.8521 149.986 13.6159 149.986 15.7325V25.5219C149.986 27.5503 148.221 29.3141 146.102 29.3141Z" fill="#1A285D"/>
<path fill-rule="evenodd" clip-rule="evenodd" d="M138.599 14.3521C137.858 14.3521 137.214 14.9988 137.214 15.7325V25.4337C137.214 26.1674 137.858 26.8141 138.599 26.8141H146.102C146.879 26.8141 147.486 26.1304 147.486 25.5219V15.7325C147.486 14.9988 146.842 14.3521 146.102 14.3521H138.599ZM132.214 15.7325C132.214 12.233 135.102 9.35205 138.599 9.35205H146.102C149.599 9.35205 152.486 12.233 152.486 15.7325V25.5219C152.486 28.9702 149.562 31.8141 146.102 31.8141H138.599C135.102 31.8141 132.214 28.9332 132.214 25.4337V15.7325Z" fill="white"/>
<path fill-rule="evenodd" clip-rule="evenodd" d="M96.0522 44.0398C96.8328 44.8212 96.8322 46.0876 96.0508 46.8683L89.695 53.2181C89.303 53.6097 88.7663 53.8211 88.2126 53.802C87.6589 53.783 87.1379 53.5351 86.7739 53.1175L84.3904 50.3835C83.6646 49.5509 83.7511 48.2876 84.5837 47.5617C85.4163 46.8359 86.6797 46.9224 87.4055 47.755L88.3823 48.8754L93.2237 44.0385C94.0052 43.2578 95.2715 43.2584 96.0522 44.0398Z" fill="white"/>
<path fill-rule="evenodd" clip-rule="evenodd" d="M96.0522 57.886C96.8329 58.6674 96.8323 59.9338 96.0508 60.7144L89.695 67.0643C89.2992 67.4597 88.7559 67.6713 88.1969 67.6476C87.6379 67.624 87.1144 67.3673 86.7535 66.9399L84.37 64.1177C83.6573 63.2738 83.7637 62.012 84.6075 61.2993C85.4514 60.5866 86.7133 60.6929 87.426 61.5368L88.4063 62.6976L93.2238 57.8847C94.0052 57.104 95.2715 57.1046 96.0522 57.886Z" fill="white"/>
<path fill-rule="evenodd" clip-rule="evenodd" d="M100.788 47.8345C100.788 46.4538 101.908 45.3345 103.288 45.3345H132.243C133.624 45.3345 134.743 46.4538 134.743 47.8345C134.743 49.2152 133.624 50.3345 132.243 50.3345H103.288C101.908 50.3345 100.788 49.2152 100.788 47.8345Z" fill="white"/>
<path fill-rule="evenodd" clip-rule="evenodd" d="M100.788 62.4746C100.788 61.0939 101.908 59.9746 103.288 59.9746H116.706C118.087 59.9746 119.206 61.0939 119.206 62.4746C119.206 63.8553 118.087 64.9746 116.706 64.9746H103.288C101.908 64.9746 100.788 63.8553 100.788 62.4746Z" fill="white"/>
<path fill-rule="evenodd" clip-rule="evenodd" d="M100.788 77.2026C100.788 75.8219 101.908 74.7026 103.288 74.7026H149.015C150.396 74.7026 151.515 75.8219 151.515 77.2026C151.515 78.5833 150.396 79.7026 149.015 79.7026H103.288C101.908 79.7026 100.788 78.5833 100.788 77.2026Z" fill="white"/>
<path fill-rule="evenodd" clip-rule="evenodd" d="M100.788 91.8425C100.788 90.4618 101.908 89.3425 103.288 89.3425H138.599C139.979 89.3425 141.099 90.4618 141.099 91.8425C141.099 93.2232 139.979 94.3425 138.599 94.3425H103.288C101.908 94.3425 100.788 93.2232 100.788 91.8425Z" fill="white"/>
<path d="M74.2456 37.2515L52.7063 101.456C50.4994 107.894 53.6773 114.949 59.8566 117.595L74.1573 123.768V37.2515H74.2456Z" fill="#1A285D"/>
<path d="M168.966 65.8259C167.73 65.8259 166.582 65.2967 165.699 64.4148L158.814 57.3594C157.048 55.5073 157.048 52.597 158.902 50.8331L163.492 46.3353C164.375 45.4534 165.523 45.0125 166.759 45.0125C167.994 45.0125 169.142 45.5416 170.025 46.4235L176.91 53.4789C177.793 54.3608 178.234 55.5073 178.234 56.742C178.234 57.9767 177.705 59.1232 176.822 60.0052L172.232 64.503C171.349 65.3849 170.201 65.8259 168.966 65.8259Z" fill="#1A285D"/>
<path d="M166.67 46.9526C167.377 46.9526 168.083 47.2172 168.613 47.7463L175.498 54.8017C176.557 55.8601 176.557 57.6239 175.498 58.6822L170.908 63.18C170.378 63.7092 169.672 63.9738 168.966 63.9738C168.259 63.9738 167.553 63.7092 167.024 63.18L160.138 56.1246C159.079 55.0663 159.079 53.3025 160.138 52.2442L164.728 47.7463C165.258 47.2172 165.964 46.9526 166.67 46.9526ZM166.67 43.2485C164.993 43.2485 163.404 43.8659 162.168 45.1006L157.578 49.5984C156.342 50.8331 155.636 52.4205 155.636 54.1844C155.636 55.9482 156.254 57.5357 157.49 58.7704L164.375 65.8258C165.611 67.0605 167.288 67.766 168.966 67.766C170.643 67.766 172.232 67.1487 173.468 65.914L178.058 61.4162C179.294 60.1815 180 58.594 180 56.8302C180 55.0663 179.382 53.4789 178.146 52.2442L171.261 45.1888C170.025 43.8659 168.436 43.2485 166.67 43.2485Z" fill="white"/>
<path d="M119.178 107.717C117.765 107.717 116.441 107.1 115.47 105.953C114.587 104.895 114.234 103.396 114.499 101.985L115.912 94.7529C116.265 93.1654 117.059 91.6661 118.207 90.5196L149.81 59.6523C150.781 58.7704 152.016 58.2412 153.341 58.2412C154.665 58.2412 155.989 58.7704 156.872 59.7405L163.227 66.2667C164.199 67.2368 164.64 68.4715 164.64 69.7944C164.64 71.1173 164.11 72.352 163.139 73.3221L131.536 104.189C130.389 105.336 128.888 106.13 127.211 106.394L119.884 107.629C119.707 107.717 119.443 107.717 119.178 107.717Z" fill="#1A285D"/>
<path d="M153.341 60.0932C154.135 60.0932 154.93 60.446 155.547 61.0634L161.903 67.5896C163.139 68.8243 163.139 70.8527 161.815 71.9992L130.212 102.867C129.33 103.748 128.182 104.366 126.858 104.542L119.531 105.777C119.354 105.777 119.178 105.777 119.001 105.777C117.236 105.777 115.823 104.101 116.176 102.337L117.589 95.1056C117.854 93.8709 118.472 92.7244 119.354 91.8425L150.957 60.9752C151.752 60.446 152.546 60.0932 153.341 60.0932ZM153.341 56.3892C151.575 56.3892 149.81 57.0947 148.574 58.3294L116.971 89.1967C115.559 90.6078 114.499 92.4599 114.146 94.4001L112.734 101.632C112.381 103.572 112.822 105.601 114.146 107.1C115.382 108.599 117.236 109.481 119.266 109.481C119.619 109.481 120.061 109.481 120.414 109.393L127.741 108.158C129.771 107.805 131.536 106.923 133.037 105.424L164.64 74.5568C167.376 71.911 167.376 67.5896 164.728 64.8556L158.372 58.3294C156.872 57.0947 155.194 56.3892 153.341 56.3892Z" fill="white"/>
</svg>
