<svg width="232" height="142" viewBox="0 0 232 142" fill="none" xmlns="http://www.w3.org/2000/svg">
<path d="M148.522 55.6768L119.066 35.7155C118.084 35.0502 117.853 33.7564 118.541 32.7753L125.196 23.2791C127.431 20.0903 131.843 19.2557 135.064 21.4126L156.419 35.8845C159.61 38.0469 160.388 42.3985 158.158 45.6167L151.503 55.1129C150.81 56.0646 149.498 56.3128 148.522 55.6768Z" fill="#1A285D"/>
<path fill-rule="evenodd" clip-rule="evenodd" d="M126.773 29.6194L150.643 45.795C151.026 46.0549 151.333 46.4688 151.427 46.9929C151.521 47.5169 151.377 48.0162 151.108 48.3994L103.613 116.17C98.8188 123.012 89.3719 124.799 82.5255 120.159L81.9644 119.779C75.1029 115.129 73.4307 105.772 78.2358 98.9157C78.2358 98.9156 78.2357 98.9158 78.2358 98.9157L126.773 29.6194ZM127.514 33.7637L80.6801 100.629C76.841 106.106 78.1743 113.568 83.6561 117.283L84.2172 117.663C89.7142 121.389 97.3199 119.95 101.17 114.457L147.994 47.6422L127.514 33.7637Z" fill="#1A285D"/>
<path d="M85.8886 114.868C81.6818 112.017 80.6522 106.256 83.5983 102.052L118.73 51.9182C118.73 51.9182 121.738 51.6834 124.425 55.3386C128.09 60.3283 132.875 56.9312 136.291 59.3239L98.8828 112.41C95.907 116.62 90.0953 117.719 85.8886 114.868Z" fill="#1A285D"/>
</svg>
