<svg width="172" height="172" viewBox="0 0 172 172" fill="none" xmlns="http://www.w3.org/2000/svg">
<path d="M0 85.0115C0 38.0609 38.5035 0 86 0V0C133.496 0 172 38.0609 172 85.0115V86.9885C172 133.939 133.496 172 86 172V172C38.5035 172 0 133.939 0 86.9885V85.0115Z" fill="white"/>
<path d="M54.3298 129.315C53.3459 128.808 53.0306 127.986 53.044 126.899C53.1044 122.069 52.8204 117.216 53.2095 112.408C54.1486 100.786 59.9938 92.2811 70.1525 86.737C70.2363 86.7117 70.3225 86.6951 70.4097 86.6875C70.0116 87.8314 69.6114 88.9236 69.2491 90.027C67.6701 94.8521 66.5016 99.8038 65.7563 104.828C65.6736 105.376 65.4433 105.558 64.9714 105.729C63.7508 106.149 62.662 106.886 61.8154 107.866C60.9689 108.846 60.3947 110.034 60.1511 111.309C59.9075 112.585 60.0031 113.902 60.4283 115.128C60.8535 116.355 61.5931 117.446 62.5722 118.291C63.5512 119.137 64.7349 119.707 66.0032 119.943C67.2714 120.179 68.5792 120.074 69.7938 119.637C71.0084 119.2 72.0868 118.448 72.9195 117.456C73.7522 116.464 74.3096 115.268 74.5353 113.989C75.1636 110.611 73.2786 107.209 70.0631 105.882C69.8104 105.776 69.5532 105.677 69.1172 105.502C69.8663 102.164 70.4589 98.7912 71.4025 95.5148C72.3909 92.0739 73.7169 88.7344 74.8685 85.3409C74.9232 85.1124 75.0463 84.9063 75.221 84.7505C75.3958 84.5946 75.6138 84.4965 75.8457 84.4694C78.0415 84.1069 80.2262 83.5372 82.4332 83.4156C86.8876 83.1679 91.3553 83.089 95.7605 84.1249C96.5565 84.3118 97.0082 84.5978 97.1402 85.476C97.6276 88.7457 98.1777 92.0064 98.7054 95.2693C98.8128 95.9201 98.5467 96.2556 97.9519 96.5506C94.5463 98.235 91.4269 100.334 88.8799 103.205C87.2118 105.083 86.0312 107.206 85.7159 109.762C85.3536 112.69 87.2521 116.34 89.8728 117.671C90.2469 117.862 90.6758 117.914 91.0846 117.819C91.4933 117.724 91.8559 117.488 92.1089 117.151C92.3683 116.813 92.4955 116.392 92.4662 115.966C92.4369 115.54 92.2532 115.14 91.9501 114.842C91.6952 114.586 91.3866 114.392 91.1094 114.149C89.2467 112.573 88.7816 110.67 89.7342 108.416C90.5318 106.574 91.8022 104.98 93.4148 103.797C95.2842 102.392 97.2922 101.171 99.26 99.9014C99.4568 99.773 99.9018 99.7347 100.043 99.8631C102.771 102.354 105.186 105.101 106.556 108.609C106.807 109.264 106.989 109.943 107.1 110.636C107.534 113.21 106.541 114.991 104.144 116.009C103.92 116.108 103.676 116.193 103.453 116.308C103.044 116.495 102.723 116.834 102.556 117.253C102.389 117.673 102.39 118.141 102.558 118.56C102.724 118.982 103.041 119.325 103.447 119.521C103.853 119.717 104.317 119.752 104.747 119.619C106.734 119.065 108.443 117.784 109.541 116.028C110.639 114.272 111.047 112.166 110.684 110.123C110.132 106.772 108.493 103.957 106.4 101.394C105.251 99.9892 103.929 98.7259 102.704 97.3815C102.498 97.1563 102.256 96.8321 102.256 96.5641C102.386 93.0738 101.677 89.6937 100.977 86.3114C100.932 86.1122 100.959 85.9033 101.051 85.7215C102.726 86.6875 104.488 87.5229 106.064 88.6489C115.125 95.0148 119.732 103.806 119.895 114.926C119.953 118.916 119.884 122.906 119.917 126.897C119.928 127.986 119.595 128.799 118.62 129.311L54.3298 129.315Z" fill="#29678F"/>
<path d="M86.4294 80.48C83.9775 80.473 81.5513 79.9777 79.2902 79.0228C77.0292 78.0678 74.978 76.672 73.2547 74.9156C71.5314 73.1593 70.17 71.0771 69.2489 68.7888C68.3278 66.5006 67.8651 64.0515 67.8875 61.5824C67.9523 51.2892 76.3378 42.9574 86.5836 43.0002C91.519 43.0208 96.2442 45.0149 99.7196 48.5439C103.195 52.0729 105.136 56.8476 105.115 61.8178C105.095 66.7879 103.115 71.5463 99.6105 75.0461C96.1062 78.546 91.3648 80.5006 86.4294 80.48V80.48Z" fill="#29678F"/>
</svg>
