<svg width="172" height="172" viewBox="0 0 172 172" fill="none" xmlns="http://www.w3.org/2000/svg">
<path d="M0 85.0115C0 38.0609 38.5035 0 86 0C133.496 0 172 38.0609 172 85.0115V86.9885C172 133.939 133.496 172 86 172C38.5035 172 0 133.939 0 86.9885V85.0115Z" fill="white"/>
<path d="M55.1001 117.1C50.2001 117.1 46.1001 113.1 46.1001 108.1V65.8H124.6V108.1C124.6 113.1 120.8 117.1 115.9 117.1H55.1001Z" fill="white"/>
<path d="M122.7 67.8V108.1C122.7 112 119.8 115.1 116 115.1H55.1001C51.3001 115.1 48.1001 112 48.1001 108.1V67.8H122.7ZM126.7 63.8H44.1001V108.1C44.1001 114.2 49.0001 119.1 55.1001 119.1H116C122.1 119.1 126.7 114.2 126.7 108.1V63.8Z" fill="#29678F"/>
<path d="M115.8 52.8999H55C48.9 52.8999 44 57.7999 44 63.8999V75.0999H126.8V63.8999C126.8 57.7999 121.9 52.8999 115.8 52.8999Z" fill="#29678F"/>
<path d="M109.4 56.8H102.2C100.7 56.8 99.5 55.6 99.5 54.1V49C99.5 47.5 100.7 46.3 102.2 46.3H109.4C110.9 46.3 112.1 47.5 112.1 49V54.1C112.1 55.6 110.9 56.8 109.4 56.8Z" fill="#29678F"/>
<path fill-rule="evenodd" clip-rule="evenodd" d="M102.2 47.6114C101.424 47.6114 100.811 48.2243 100.811 49.0001V54.1001C100.811 54.8759 101.424 55.4888 102.2 55.4888H109.4C110.176 55.4888 110.789 54.8759 110.789 54.1001V49.0001C110.789 48.2243 110.176 47.6114 109.4 47.6114H102.2ZM98.1887 49.0001C98.1887 46.7759 99.9758 44.9888 102.2 44.9888H109.4C111.624 44.9888 113.411 46.7759 113.411 49.0001V54.1001C113.411 56.3243 111.624 58.1114 109.4 58.1114H102.2C99.9758 58.1114 98.1887 56.3243 98.1887 54.1001V49.0001Z" fill="white"/>
<path d="M68.6 56.8H61.4C59.9 56.8 58.7 55.6 58.7 54.1V49C58.7 47.5 59.9 46.3 61.4 46.3H68.6C70.1 46.3 71.3 47.5 71.3 49V54.1C71.3 55.6 70.1 56.8 68.6 56.8Z" fill="#29678F"/>
<path fill-rule="evenodd" clip-rule="evenodd" d="M61.4 47.6114C60.6242 47.6114 60.0113 48.2243 60.0113 49.0001V54.1001C60.0113 54.8759 60.6242 55.4888 61.4 55.4888H68.6C69.3758 55.4888 69.9887 54.8759 69.9887 54.1001V49.0001C69.9887 48.2243 69.3758 47.6114 68.6 47.6114H61.4ZM57.3887 49.0001C57.3887 46.7759 59.1758 44.9888 61.4 44.9888H68.6C70.8242 44.9888 72.6113 46.7759 72.6113 49.0001V54.1001C72.6113 56.3243 70.8242 58.1114 68.6 58.1114H61.4C59.1758 58.1114 57.3887 56.3243 57.3887 54.1001V49.0001Z" fill="white"/>
<path d="M69.9001 91.5001C72.4001 92.6001 73.4001 94.8001 73.4001 97.1001C73.4001 99.9001 70.8001 102.7 66.4001 102.7C63.2001 102.7 61.2001 101.2 60.6001 100.6L62.1001 98.1001C62.6001 98.7001 64.5001 99.8001 66.4001 99.8001C68.9001 99.8001 70.0001 98.2001 70.0001 96.6001C70.0001 94.4001 68.1001 92.6001 65.3001 92.6001C65.0001 92.6001 64.8001 92.6001 64.5001 92.7001V90.6001C64.8001 90.7001 65.1001 90.7001 65.4001 90.7001C67.6001 90.7001 69.1001 89.3001 69.1001 87.8001C69.1001 86.4001 68.2001 85.6001 66.5001 85.6001C65.5001 85.6001 64.1001 86.1001 63.5001 86.5001L62.5001 84.0001C63.1001 83.4001 65.1001 82.6001 67.3001 82.6001C70.6001 82.6001 72.7001 85.2001 72.7001 87.4001C72.5001 88.8001 72.0001 90.3001 69.9001 91.5001Z" fill="#29678F"/>
<path d="M66.3 103.2C62.4 103.2 60.3 101.2 60.1 100.9L59.8 100.6L61.9 97.2L62.3 97.7C62.7 98.2 64.4 99.2 66.2 99.2C68.4 99.2 69.3 97.8 69.3 96.5C69.3 94.5 67.5 93 65.1 93C64.9 93 64.6 93 64.3 93L63.7 93.1V90L64.3 90.1C64.6 90.1 64.9 90.2 65.1 90.2C67 90.2 68.3 88.9 68.3 87.8C68.3 87.1 68.1 86.1 66.2 86.1C65.4 86.1 64.1 86.5 63.4 86.9L62.9 87.2L61.5 83.8L61.8 83.6C62.5 83 64.5 82 66.9 82C70.4 82 72.8 84.7 72.8 87.3C72.8 89 72.1 90.4 70.6 91.5C72.5 92.7 73.6 94.7 73.6 97.1C73.9 100.1 71.1 103.2 66.3 103.2ZM61.2 100.5C61.8 101 63.6 102.2 66.4 102.2C70.6 102.2 72.9 99.6 72.9 97.1C72.9 94.8 71.7 92.8 69.7 92L69.4 91.9V91.2L69.7 91.1C71.3 90.2 72.1 89 72.1 87.3C72.1 85.5 70.4 83 67.2 83C65.4 83 63.8 83.6 63 84.1L63.7 85.7C64.5 85.3 65.6 85 66.5 85C69.2 85 69.6 86.7 69.6 87.7C69.6 89.7 67.5 91.3 65 91.1V92.1C65.1 92.1 65.2 92.1 65.3 92.1C68.3 92.1 70.5 94 70.5 96.6C70.5 98.4 69.2 100.3 66.4 100.3C64.7 100.3 63.1 99.6 62.2 98.9L61.2 100.5Z" fill="#29678F"/>
<path d="M82.6 97.3L83 94.5H90.2L89.8 97.3H82.6Z" fill="#29678F"/>
<path d="M90.2 97.8H82L82.5 94H90.7L90.2 97.8ZM83.2 96.8H89.4L89.6 95H83.4L83.2 96.8Z" fill="#29678F"/>
<path d="M99.1001 102.5L108.1 85.8999H99.3001V82.8999H113.3L103.1 102.5H99.1001Z" fill="#29678F"/>
<path d="M103.4 103H98.3L107.3 86.3999H98.8V82.3999H114.2L103.4 103ZM100 102H102.8L112.5 83.3999H99.8V85.3999H109L100 102Z" fill="#29678F"/>
<path d="M123.3 125.6C132.689 125.6 140.3 117.989 140.3 108.6C140.3 99.2113 132.689 91.6001 123.3 91.6001C113.911 91.6001 106.3 99.2113 106.3 108.6C106.3 117.989 113.911 125.6 123.3 125.6Z" fill="#29678F"/>
<path fill-rule="evenodd" clip-rule="evenodd" d="M123.3 93.5577C114.992 93.5577 108.258 100.292 108.258 108.6C108.258 116.908 114.992 123.642 123.3 123.642C131.608 123.642 138.342 116.908 138.342 108.6C138.342 100.292 131.608 93.5577 123.3 93.5577ZM104.342 108.6C104.342 98.13 112.83 89.6423 123.3 89.6423C133.77 89.6423 142.258 98.13 142.258 108.6C142.258 119.07 133.77 127.558 123.3 127.558C112.83 127.558 104.342 119.07 104.342 108.6Z" fill="white"/>
<path d="M123.3 101.8V108.6H130.6" fill="#29678F"/>
<path fill-rule="evenodd" clip-rule="evenodd" d="M123.3 100.234C124.165 100.234 124.866 100.935 124.866 101.8V107.034H130.6C131.465 107.034 132.166 107.735 132.166 108.6C132.166 109.465 131.465 110.166 130.6 110.166H123.3C122.435 110.166 121.734 109.465 121.734 108.6V101.8C121.734 100.935 122.435 100.234 123.3 100.234Z" fill="white"/>
</svg>
