<svg width="172" height="172" viewBox="0 0 172 172" fill="none" xmlns="http://www.w3.org/2000/svg">
<rect width="172" height="172" rx="86" fill="white"/>
<path d="M111.435 74.692L88.7414 59.4623C87.9849 58.9547 87.8104 57.9621 88.3449 57.2065L93.5177 49.8932C95.2547 47.4374 98.6665 46.7821 101.148 48.4275L117.601 59.469C120.06 61.1189 120.647 64.4576 118.914 66.9359L113.741 74.2492C113.202 74.9823 112.188 75.1771 111.435 74.692Z" fill="#29678F"/>
<path fill-rule="evenodd" clip-rule="evenodd" d="M94.7545 53.9207L113.62 66.5808C114.035 66.8592 114.378 67.3125 114.48 67.8976C114.583 68.4828 114.417 69.0339 114.124 69.4484L77.1998 121.653C73.2831 127.191 65.6179 128.665 60.0764 124.946L59.6442 124.656C54.0747 120.919 52.7451 113.344 56.6816 107.779L94.7545 53.9207ZM95.6063 58.7699L59.5341 109.798C56.7502 113.734 57.6855 119.064 61.6243 121.707L62.0565 121.997C66.0233 124.659 71.5439 123.598 74.3476 119.634L110.383 68.6857L95.6063 58.7699Z" fill="#29678F"/>
<path d="M63.0627 120.359C59.8227 118.184 59.0469 113.764 61.3369 110.526L88.6455 71.9142C88.6455 71.9142 90.9702 71.7235 93.0332 74.5206C95.8472 78.3388 99.5549 75.7141 102.186 77.5394L73.109 118.426C70.7959 121.669 66.3027 122.533 63.0627 120.359Z" fill="#29678F"/>
</svg>
