<svg width="146" height="146" viewBox="0 0 146 146" fill="none" xmlns="http://www.w3.org/2000/svg">
<path fill-rule="evenodd" clip-rule="evenodd" d="M123.702 96.5518C122.004 93.7457 118.508 92.8233 115.744 94.4024L96.8588 105.194C94.0519 106.887 93.125 110.378 94.6945 113.142C96.3901 115.952 99.8881 116.877 102.653 115.299C102.654 115.299 102.655 115.298 102.656 115.298L121.545 104.404C124.231 102.82 125.187 99.2367 123.702 96.5518ZM114.256 91.7977C118.486 89.3806 123.779 90.85 126.286 95.0283L126.298 95.0481L126.309 95.0683C128.607 99.1796 127.164 104.579 123.061 106.993L123.049 106.999L104.149 117.899L104.144 117.902C99.9143 120.32 94.6207 118.85 92.1137 114.672L92.1055 114.658L92.0976 114.644C89.6805 110.414 91.1499 105.121 95.3282 102.614L95.3419 102.606L114.256 91.7977Z" fill="#1A285D"/>
<path d="M114.3 110.3L103.4 116.6C99.9001 118.6 95.5001 117.4 93.4001 113.9C91.4001 110.4 92.6001 106 96.1001 103.9L107 97.6001L114.3 110.3Z" fill="#1A285D"/>
<path fill-rule="evenodd" clip-rule="evenodd" d="M107.28 96.5579L115.34 110.579L103.781 117.26L103.778 117.262C99.9072 119.474 95.0533 118.137 92.7465 114.292L92.7423 114.285L92.7383 114.278C90.5264 110.407 91.8633 105.553 95.7079 103.246L95.7186 103.24L107.28 96.5579ZM96.4869 104.557C93.3379 106.45 92.2762 110.389 94.0577 113.515C95.9522 116.664 99.8938 117.725 103.02 115.939C103.021 115.939 103.021 115.939 103.022 115.938L113.26 110.021L106.72 98.642L96.4869 104.557Z" fill="#1A285D"/>
<path fill-rule="evenodd" clip-rule="evenodd" d="M83.0491 71.8305C79.9111 70.8707 76.6723 72.5688 75.7304 75.5516C74.7714 78.5885 76.4683 81.9274 79.4517 82.8695L79.462 82.8727L100.157 89.571C103.192 90.5268 106.528 88.83 107.47 85.8482C108.429 82.8113 106.732 79.4724 103.748 78.5303L103.738 78.527L83.0491 71.8305ZM72.8697 74.6482C74.3268 70.034 79.2822 67.5327 83.9412 68.9662L83.9516 68.9694L104.657 75.6712C109.27 77.1313 111.771 82.1903 110.33 86.7516C108.873 91.3682 103.811 93.8712 99.2484 92.4303L99.2381 92.427L78.5429 85.7285C73.9298 84.2684 71.4293 79.2095 72.8697 74.6482Z" fill="#1A285D"/>
<path d="M92.1999 73.3L104.2 77.2001C108 78.4001 110.1 82.6001 108.9 86.4001C107.7 90.2001 103.5 92.3 99.6999 91.1L87.7 87.2001L92.1999 73.3Z" fill="#1A285D"/>
<path fill-rule="evenodd" clip-rule="evenodd" d="M91.7099 72.3394L104.429 76.4732C104.431 76.4736 104.432 76.4739 104.433 76.4742C108.645 77.8065 110.949 82.4428 109.627 86.6295C108.296 90.8443 103.658 93.1491 99.4705 91.8267L99.4644 91.8248L86.7405 87.6895L91.7099 72.3394ZM92.69 74.2606L88.6595 86.7105L99.9295 90.3732C99.9305 90.3736 99.9315 90.3739 99.9325 90.3742C103.344 91.4497 107.105 89.5546 108.173 86.1705C109.251 82.7582 107.356 78.9957 103.97 77.9267L103.964 77.9248L92.69 74.2606Z" fill="#1A285D"/>
<path d="M35.8 28H66.8C69.3 28 71.3 30 71.3 32.5V39.2C71.3 41.7 69.3 43.7 66.8 43.7H35.8C33.3 43.7 31.3 41.7 31.3 39.2V32.5C31.2 30 33.2 28 35.8 28Z" fill="#1A285D"/>
<path d="M65.3 40.2H37.3V48.7H65.3V40.2Z" fill="#1A285D"/>
<path d="M66.8 112.7H35.7C29.8 112.7 25 107.9 25 102V58.4C25 52.4999 29.8 47.7 35.7 47.7H66.9C72.8 47.7 77.6 52.4999 77.6 58.4V102C77.5 107.9 72.8 112.7 66.8 112.7Z" fill="#1A285D"/>
<path d="M65.1 102H37.5C35.3 102 33.5 100.2 33.5 98V69.5C33.5 67.3 35.3 65.5 37.5 65.5H65.1C67.3 65.5 69.1 67.3 69.1 69.5V98C69.1 100.2 67.3 102 65.1 102Z" fill="#A9BFCC"/>
<path fill-rule="evenodd" clip-rule="evenodd" d="M37.3 72.5C37.3 71.6716 37.9716 71 38.8 71H53.2C54.0285 71 54.7001 71.6716 54.7001 72.5C54.7001 73.3284 54.0285 74 53.2 74H38.8C37.9716 74 37.3 73.3284 37.3 72.5Z" fill="white"/>
<path fill-rule="evenodd" clip-rule="evenodd" d="M34.9 39.2C34.9 38.6477 35.3477 38.2 35.9 38.2H50.4C50.9523 38.2 51.4 38.6477 51.4 39.2C51.4 39.7522 50.9523 40.2 50.4 40.2H35.9C35.3477 40.2 34.9 39.7522 34.9 39.2Z" fill="#A9BFCC"/>
<path fill-rule="evenodd" clip-rule="evenodd" d="M37.3 78.3999C37.3 77.5715 37.9716 76.8999 38.8 76.8999H49.6C50.4285 76.8999 51.1 77.5715 51.1 78.3999C51.1 79.2283 50.4285 79.8999 49.6 79.8999H38.8C37.9716 79.8999 37.3 79.2283 37.3 78.3999Z" fill="white"/>
<path fill-rule="evenodd" clip-rule="evenodd" d="M37.3 96.3999C37.3 95.5715 37.9716 94.8999 38.8 94.8999H61.2001C62.0285 94.8999 62.7001 95.5715 62.7001 96.3999C62.7001 97.2283 62.0285 97.8999 61.2001 97.8999H38.8C37.9716 97.8999 37.3 97.2283 37.3 96.3999Z" fill="white"/>
</svg>
