<svg width="146" height="146" viewBox="0 0 146 146" fill="none" xmlns="http://www.w3.org/2000/svg">
<path opacity="0.5" d="M56.5 82.9746L89.5 96.4746L86 89.9746C86 89.7746 86 89.5746 86 89.3746C86.1 89.0746 88.4 81.2744 91 76.9744C92 75.3744 94 76.5744 96.1 77.7744C97.9 78.8744 100.5 80.3744 101.9 79.8744C103.8 79.1744 104.4 77.9744 105.1 76.5744C105.7 75.3744 106.4 74.0744 107.9 73.0744C107.5 72.3744 106.4 70.6744 104.9 69.4744C104.5 69.2744 104.3 68.7744 104.5 68.2744C104.8 67.3744 105.2 67.5744 109.5 67.9744C110.1 68.0744 110.9 68.0744 111.2 68.0744C111.3 67.9744 111.3 67.5744 111.4 67.3744C111.5 66.9744 111.6 66.4744 111.8 65.8744C112 65.3744 112.4 65.1744 112.9 65.1744C114 65.3744 115.3 65.3744 115.6 65.2744C116.1 64.9744 115 61.6744 114.4 60.0744C113.3 57.0744 112.3 53.8744 113.2 51.8744C116.5 45.2744 115.6 38.7744 115.5 37.8744C115.5 37.1744 112.5 31.9744 102 27.0744C100.4 26.3744 98.9 26.2744 97.3 26.8744C90.9 29.3744 85.7 42.2744 82.6 49.8744C81.5 52.4744 80.7 54.5744 80.1 55.6744C79.3 57.0744 78.5 58.3744 77.6 59.6744C75.1 63.4744 74 66.2744 68.5 73.0744C65.5 76.7744 57.9 81.6746 56.5 82.9746ZM105.9 68.2744L106 68.3744C106 68.2744 106 68.2744 105.9 68.2744Z" fill="#A9BFCC"/>
<path d="M31 129.575H105.2C105.2 129.575 103.2 110.475 90.4 89.3746C79.8 89.2746 65 72.9746 65 72.9746C65 72.9746 33.6 88.5746 31 129.575Z" fill="#1A285D"/>
<path d="M73.8001 65.7742C74.7001 65.1742 75.8001 64.3742 76.5001 63.7742C78.8001 61.8742 85.8001 56.0742 85.8001 56.0742C85.8001 56.0742 84.1001 53.5742 85.4001 49.1742C87.5001 42.1742 93.5001 45.5742 93.5001 45.5742C93.5001 45.5742 96.1001 40.0742 99.0001 39.1742C103.4 37.7742 113.6 38.6742 116.4 38.4742C116.7 38.4742 116.9 38.4742 117 38.3742C117.4 38.1742 117.8 37.9742 118.2 37.7742C122.7 35.0742 124.9 29.4742 124.9 29.4742C124.9 29.4742 114.2 26.4742 106.6 21.9742C105.3 21.1742 103.8 20.6742 102.5 20.1742C100.5 19.2742 98.7001 18.5742 97.4001 18.1742C82.8001 13.7742 71.9001 22.2742 68.2001 34.7742C67.4001 37.4742 67.1001 40.3742 67.1001 43.2742C67.1001 48.1742 68.0001 53.1742 69.0001 57.2742C70.0001 61.1742 71.1001 64.2742 71.6001 65.7742C71.9001 66.5742 72.0001 66.9742 72.0001 66.9742C72.0001 66.9742 72.8001 66.3742 73.8001 65.7742Z" fill="#1A285D"/>
<path fill-rule="evenodd" clip-rule="evenodd" d="M114.2 71.5612C114.207 71.009 114.661 70.5671 115.213 70.5743L122.913 70.6743C123.465 70.6815 123.907 71.135 123.9 71.6872C123.893 72.2394 123.439 72.6813 122.887 72.6741L115.187 72.5741C114.635 72.567 114.193 72.1135 114.2 71.5612Z" fill="#1A285D"/>
<path fill-rule="evenodd" clip-rule="evenodd" d="M114.42 74.0983C114.683 73.6126 115.29 73.4318 115.776 73.6946L121.876 76.9946C122.362 77.2574 122.542 77.8642 122.28 78.35C122.017 78.8357 121.41 79.0165 120.924 78.7537L114.824 75.4537C114.338 75.1909 114.158 74.5841 114.42 74.0983Z" fill="#1A285D"/>
<path fill-rule="evenodd" clip-rule="evenodd" d="M111.951 75.8379C112.413 75.5349 113.033 75.6635 113.336 76.1253L117.536 82.5253C117.839 82.987 117.711 83.607 117.249 83.91C116.787 84.213 116.167 84.0843 115.864 83.6226L111.664 77.2226C111.361 76.7609 111.49 76.1409 111.951 75.8379Z" fill="#1A285D"/>
</svg>
