<svg width="146" height="146" viewBox="0 0 146 146" fill="none" xmlns="http://www.w3.org/2000/svg">
<path d="M49.5 93.9C77.5 77.3 77.7001 63 77.7001 63C77.7001 63 77.7001 51.5 77.7001 31.5C61 31.1 49.5 24 49.5 24C49.5 24 38 31.1 21.3 31.5C21.3 51.5 21.3 63 21.3 63C21.3 63 21.4 77.3 49.5 93.9Z" fill="#1A285D"/>
<path fill-rule="evenodd" clip-rule="evenodd" d="M48.279 22.0193L48.2804 22.0184L49.5 21.2654L50.7197 22.0184L50.7206 22.0189L50.7224 22.0201L50.7363 22.0285C50.7519 22.0379 50.7784 22.0538 50.8157 22.0758C50.8902 22.1197 51.0075 22.1879 51.1662 22.2771C51.4837 22.4553 51.9662 22.7171 52.6014 23.0359C53.8724 23.6736 55.7514 24.5375 58.1407 25.4161C62.9243 27.1754 69.7186 28.9813 77.7558 29.1738L80.0269 29.2282V62.9995C80.0269 62.9996 80.0269 63 77.7 63C80.0267 63.0326 80.0267 63.0348 80.0266 63.0372L80.0266 63.0421L80.0264 63.0529L80.0257 63.0785C80.0251 63.0974 80.0243 63.1197 80.0232 63.1455C80.0209 63.1972 80.0171 63.2627 80.0111 63.3417C79.9991 63.4997 79.9778 63.7116 79.9405 63.9742C79.8659 64.4997 79.727 65.2271 79.469 66.1319C78.9522 67.944 77.9621 70.4522 76.0703 73.463C72.2849 79.4876 64.936 87.4538 50.6867 95.9016L49.5022 96.6039L48.3165 95.9035C34.0167 87.4559 26.6649 79.4885 22.8903 73.4599C21.0039 70.447 20.0228 67.9365 19.5142 66.1217C19.2602 65.2157 19.1252 64.4872 19.0536 63.9606C19.0178 63.6975 18.9978 63.4852 18.9868 63.3267C18.9812 63.2475 18.9779 63.1817 18.976 63.1299C18.975 63.1039 18.9743 63.0815 18.9739 63.0625L18.9734 63.0368L18.9733 63.0259L18.9732 63.0209C18.9732 63.0186 18.9732 63.0163 21.3 63C18.9731 63 18.9731 63 18.9731 62.9999V29.2282L21.2443 29.1738C29.2815 28.9813 36.0757 27.1754 40.8594 25.4161C43.2487 24.5375 45.1277 23.6736 46.3987 23.0359C47.0339 22.7171 47.5164 22.4553 47.8339 22.2771C47.9926 22.1879 48.1099 22.1197 48.1844 22.0758C48.2217 22.0538 48.2482 22.0379 48.2638 22.0285L48.2776 22.0201L48.279 22.0193ZM21.3 63L18.9731 62.9999V63.0082L18.9732 63.0163L21.3 63ZM23.6269 62.9648C23.6274 62.9731 23.6281 62.9858 23.6293 63.0027C23.6334 63.0618 23.6431 63.1729 23.6649 63.3332C23.7085 63.6535 23.8008 64.1718 23.9953 64.8658C24.3836 66.2511 25.1836 68.3531 26.8348 70.9902C30.0393 76.1083 36.494 83.311 49.4979 91.1874C62.4547 83.3119 68.9118 76.1087 72.1298 70.9871C73.788 68.3479 74.5978 66.2435 74.9936 64.8557C75.1918 64.1605 75.2873 63.641 75.333 63.3196C75.3558 63.1588 75.3663 63.0472 75.3708 62.9876C75.3719 62.9735 75.3726 62.9622 75.3731 62.9539V33.7314C67.7033 33.2745 61.22 31.5071 56.5344 29.7839C53.9612 28.8376 51.9214 27.9014 50.5143 27.1954C50.1282 27.0017 49.7894 26.8251 49.5 26.6703C49.2107 26.8251 48.8719 27.0017 48.4858 27.1954C47.0787 27.9014 45.0389 28.8376 42.4657 29.7839C37.7801 31.5071 31.2968 33.2745 23.6269 33.7314V62.9648ZM77.7 63L80.0267 63.0326L80.0269 63.0163V62.9995L77.7 63Z" fill="#A9BFCC"/>
<path d="M49.5 93.9C77.5 77.3 77.7001 63 77.7001 63C77.7001 63 77.7001 51.5 77.7001 31.5C61 31.1 49.5 24 49.5 24C49.5 24 38 31.1 21.3 31.5C21.3 51.5 21.3 63 21.3 63C21.3 63 21.4 77.3 49.5 93.9Z" fill="#1A285D"/>
<path d="M49.5 93.9C77.5 77.3 77.7001 63 77.7001 63C77.7001 63 77.7001 51.5 77.7001 31.5C61 31.1 49.5 24 49.5 24C49.5 24 38 31.1 21.3 31.5C21.3 51.5 21.3 63 21.3 63C21.3 63 21.4 77.3 49.5 93.9Z" fill="#1A285D"/>
<path d="M49.5 88.1C28 74.6 26.4 63.6999 26.3 62.8999V36.2C37.2 35.1 45.5 31.7 49.5 29.7C53.5 31.7 61.8 35.2 72.7001 36.2V62.8999C72.6001 63.6999 70.9 74.6 49.5 88.1Z" fill="#1A285D"/>
<path fill-rule="evenodd" clip-rule="evenodd" d="M49.5 28.0229L50.1709 28.3584C54.0625 30.3042 62.1786 33.7284 72.8371 34.7063L74.2001 34.8313V62.9934L74.1885 63.086C74.0228 64.411 72.007 75.6752 50.3004 89.3687L49.5019 89.8724L48.7024 89.3703C26.8885 75.6732 24.9767 64.4063 24.8116 63.086L24.8 62.9934V34.8438L26.1494 34.7076C36.8258 33.6302 44.9488 30.2986 48.8292 28.3584L49.5 28.0229ZM27.8 37.5434V62.7974C27.9577 63.8345 29.9137 73.7942 49.4982 86.323C69.0124 73.7817 71.0388 63.8143 71.2001 62.7945V37.5547C61.293 36.4428 53.6318 33.3671 49.4993 31.3709C45.3566 33.3632 37.6973 36.3563 27.8 37.5434Z" fill="white"/>
<path fill-rule="evenodd" clip-rule="evenodd" d="M61.9001 56.8269H37.1001V52.1731H61.9001V56.8269Z" fill="#A9BFCC"/>
<path fill-rule="evenodd" clip-rule="evenodd" d="M47.1731 66.9V42.2H51.8269V66.9H47.1731Z" fill="#A9BFCC"/>
<path fill-rule="evenodd" clip-rule="evenodd" d="M117.332 43.4322C118.309 42.4559 119.892 42.4559 120.868 43.4322L136.768 59.3322C137.744 60.3085 137.744 61.8914 136.768 62.8677C135.792 63.844 134.209 63.844 133.232 62.8677L117.332 46.9677C116.356 45.9914 116.356 44.4085 117.332 43.4322Z" fill="#1A285D"/>
<path fill-rule="evenodd" clip-rule="evenodd" d="M101.232 48.6321C102.209 47.6558 103.791 47.6558 104.768 48.6321L131.568 75.4321C132.544 76.4084 132.544 77.9914 131.568 78.9677C130.591 79.944 129.009 79.944 128.032 78.9677L101.232 52.1677C100.256 51.1914 100.256 49.6084 101.232 48.6321Z" fill="#1A285D"/>
<path fill-rule="evenodd" clip-rule="evenodd" d="M122.19 48.3752C123.166 47.3987 124.749 47.3985 125.726 48.3747L131.807 54.4549C132.784 55.431 132.784 57.0139 131.808 57.9904L121.132 68.6691C120.156 69.6455 118.573 69.6458 117.597 68.6696L111.515 62.5894C110.538 61.6132 110.538 60.0303 111.514 59.0539L122.19 48.3752ZM123.959 53.6782L116.818 60.8209L119.364 63.3661L126.504 56.2234L123.959 53.6782Z" fill="#1A285D"/>
<path d="M78.4774 107.774L72.3955 101.694L68.7898 105.3L74.8717 111.381L78.4774 107.774Z" fill="#1A285D"/>
<path fill-rule="evenodd" clip-rule="evenodd" d="M70.981 100.28C71.762 99.4985 73.0283 99.4983 73.8094 100.279L79.8913 106.359C80.6725 107.14 80.6727 108.407 79.8917 109.188L76.286 112.795C75.5051 113.576 74.2388 113.576 73.4576 112.795L67.3757 106.715C66.5946 105.934 66.5944 104.668 67.3753 103.886L70.981 100.28ZM72.3958 104.522L71.6181 105.3L74.8712 108.552L75.6489 107.774L72.3958 104.522Z" fill="#1A285D"/>
<path d="M122.282 69.6922L110.472 57.8853L70.8802 97.4885L82.6904 109.295L122.282 69.6922Z" fill="#A9BFCC"/>
<path fill-rule="evenodd" clip-rule="evenodd" d="M108.704 56.1176C109.68 55.1412 111.263 55.1409 112.239 56.1171L124.05 67.924C125.026 68.9002 125.026 70.4831 124.05 71.4595L84.4582 111.063C83.482 112.039 81.8991 112.039 80.9227 111.063L69.1124 99.2563C68.136 98.2801 68.1358 96.6973 69.1119 95.7208L108.704 56.1176ZM110.472 61.4206L74.4154 97.4878L82.6897 105.76L118.747 69.6925L110.472 61.4206Z" fill="#1A285D"/>
<path d="M86.071 99.5949L77.4431 90.9695L70.871 97.5434L79.4989 106.169L86.071 99.5949Z" fill="#1A285D"/>
<path fill-rule="evenodd" clip-rule="evenodd" d="M109.186 72.6141L102.486 65.9141L105.314 63.0857L112.014 69.7857L109.186 72.6141Z" fill="#1A285D"/>
<path fill-rule="evenodd" clip-rule="evenodd" d="M102.486 79.3141L95.7859 72.6141L98.6143 69.7856L105.314 76.4856L102.486 79.3141Z" fill="#1A285D"/>
<path fill-rule="evenodd" clip-rule="evenodd" d="M95.6858 86.1141L88.9858 79.4141L91.8143 76.5857L98.5143 83.2857L95.6858 86.1141Z" fill="#1A285D"/>
<path fill-rule="evenodd" clip-rule="evenodd" d="M71.8142 111.214L60.0142 123.014L57.1858 120.186L68.9858 108.386L71.8142 111.214Z" fill="#1A285D"/>
</svg>
