<svg width="24" height="24" viewBox="0 0 24 24" fill="none" xmlns="http://www.w3.org/2000/svg">
<path d="M12 2C6.48 2 2 6.48 2 12C2 17.52 6.48 22 12 22C17.52 22 22 17.52 22 12C22 6.48 17.52 2 12 2Z" fill="#1A285D"/>
<path d="M11.2049 14.376H12.7787L13.123 8.65504L13.2049 6.5H10.7787L10.8607 8.65504L11.2049 14.376ZM11.9918 18.5C12.8443 18.5 13.5 17.8488 13.5 17.0116C13.5 16.1744 12.8443 15.5233 11.9918 15.5233C11.1393 15.5233 10.5 16.1744 10.5 17.0116C10.5 17.8488 11.1393 18.5 11.9918 18.5Z" fill="white"/>
</svg>
