<svg width="32" height="32" viewBox="0 0 32 32" fill="none" xmlns="http://www.w3.org/2000/svg">
<path fill-rule="evenodd" clip-rule="evenodd" d="M22.4709 3.00369C22.7594 3.02853 23.023 3.17722 23.1935 3.41132L23.8084 4.25562C24.1017 4.65843 24.0537 5.21575 23.6959 5.5625L12.9234 16L23.6959 26.4375C24.0537 26.7843 24.1017 27.3416 23.8084 27.7444L23.1935 28.5887C23.023 28.8228 22.7594 28.9715 22.4709 28.9963C22.1824 29.0212 21.8973 28.9197 21.6893 28.7182L9.30415 16.7182C9.10974 16.5298 9 16.2707 9 16C9 15.7293 9.10974 15.4702 9.30415 15.2818L21.6893 3.28182C21.8973 3.08031 22.1824 2.97885 22.4709 3.00369Z" fill="#1A285D"/>
</svg>
