<svg width="32" height="32" viewBox="0 0 32 32" fill="none" xmlns="http://www.w3.org/2000/svg">
<g clip-path="url(#clip0_272:29670)">
<path d="M28.3333 18.2002C21.2667 13.2669 14.2 23.1335 7 18.2002C7 13.6669 7 9.00019 7 4.46686C14.0667 9.40019 21.1333 -0.466478 28.3333 4.46686C28.3333 9.00019 28.3333 13.5335 28.3333 18.2002Z" fill="#ECF1EF"/>
<path d="M28.8333 18.2002C21.7667 13.2669 14.7 23.1335 7.5 18.2002C7.5 13.6669 7.5 9.00019 7.5 4.46686C14.5667 9.40019 21.6333 -0.466478 28.8333 4.46686C28.8333 9.00019 28.8333 13.5335 28.8333 18.2002Z" stroke="#1A285D" stroke-width="2.5" stroke-miterlimit="10" stroke-linecap="round" stroke-linejoin="round"/>
<path d="M7.5 4V31" stroke="#1A285D" stroke-width="2.5" stroke-miterlimit="10" stroke-linecap="round" stroke-linejoin="round"/>
<path d="M7.5 6C8.32843 6 9 5.32843 9 4.5C9 3.67157 8.32843 3 7.5 3C6.67157 3 6 3.67157 6 4.5C6 5.32843 6.67157 6 7.5 6Z" stroke="#1A285D" stroke-width="2.5" stroke-miterlimit="10" stroke-linecap="round" stroke-linejoin="round"/>
</g>
<defs>
<clipPath id="clip0_272:29670">
<rect width="32" height="32" fill="white"/>
</clipPath>
</defs>
</svg>
