<svg width="24" height="24" viewBox="0 0 24 24" fill="none" xmlns="http://www.w3.org/2000/svg">
<path d="M3.64969 6.10978C3.45186 6.22549 3.28747 6.3931 3.17332 6.59548C3.05918 6.79786 2.99937 7.02775 3.00001 7.26166V19.5137C2.99929 19.742 3.05614 19.9666 3.16502 20.1656C3.27391 20.3645 3.4311 20.5311 3.62129 20.6491C3.81148 20.767 4.02817 20.8324 4.25023 20.8387C4.47229 20.845 4.69216 20.792 4.88839 20.685C4.90567 20.6755 4.92254 20.6656 4.93901 20.6545L8.31962 18.3817C8.36451 18.3516 8.40137 18.3104 8.42685 18.262C8.45232 18.2135 8.4656 18.1593 8.46547 18.1042V3.34815C8.46563 3.28798 8.4498 3.22891 8.41968 3.17731C8.38956 3.12572 8.3463 3.08356 8.29456 3.05538C8.24282 3.02721 8.18458 3.01409 8.12612 3.01744C8.06766 3.0208 8.0112 3.0405 7.96284 3.07442L3.64969 6.10978ZM10.2466 3.05336C10.1981 3.02099 10.1421 3.00265 10.0843 3.00027C10.0265 2.99788 9.96923 3.01155 9.91839 3.03982C9.86756 3.06809 9.82509 3.10993 9.79545 3.16092C9.76581 3.21191 9.7501 3.27017 9.74997 3.32957V18.0918C9.74984 18.1469 9.76312 18.2011 9.78859 18.2496C9.81406 18.2981 9.85092 18.3392 9.89582 18.3693L13.7529 20.9464C13.8014 20.9789 13.8576 20.9973 13.9154 20.9997C13.9733 21.0021 14.0307 20.9885 14.0816 20.9601C14.1325 20.9318 14.175 20.8899 14.2047 20.8387C14.2343 20.7876 14.2499 20.7292 14.2499 20.6698V5.91697C14.2501 5.86179 14.2368 5.80745 14.2112 5.75891C14.1857 5.71037 14.1487 5.66919 14.1037 5.63912L10.2466 3.05336ZM20.3783 3.34897C20.1889 3.22981 19.9723 3.16376 19.7503 3.15738C19.5282 3.15101 19.3084 3.20454 19.1127 3.31264C19.0954 3.32178 19.0786 3.33198 19.0625 3.34319L15.6815 5.61393C15.6366 5.64401 15.5997 5.68516 15.5743 5.73361C15.5488 5.78207 15.5355 5.8363 15.5357 5.89137V20.6495C15.5354 20.7098 15.5513 20.7689 15.5814 20.8206C15.6115 20.8722 15.6549 20.9144 15.7067 20.9426C15.7585 20.9708 15.8168 20.9839 15.8753 20.9805C15.9338 20.9771 15.9903 20.9573 16.0387 20.9232L20.3406 17.8904C20.5408 17.7756 20.7075 17.6079 20.8234 17.4046C20.9394 17.2014 21.0003 16.9699 20.9999 16.7344V4.51365C21.0026 4.28098 20.9467 4.05153 20.8379 3.84751C20.729 3.64348 20.5707 3.47177 20.3783 3.34897Z" fill="#1A285D"/>
</svg>
