<svg width="24" height="24" viewBox="0 0 24 24" fill="none" xmlns="http://www.w3.org/2000/svg">
<path d="M12 3C6.91935 3 3 6.7379 3 11.746C3 14.3589 4.05242 16.6452 5.83065 18.2056C6.12097 18.496 6.04839 18.6411 6.12097 20.3105C6.12097 20.7097 6.44758 21 6.84677 21C6.91935 21 7.02823 21 7.1371 20.9637C9.02419 20.129 9.06048 20.0565 9.3871 20.129C14.9395 21.6532 21 18.0968 21 11.746C21 6.7379 17.0806 3 12 3ZM17.4073 9.75L14.7581 13.9234C14.5403 14.3226 14.1048 14.5766 13.6331 14.5766C13.3065 14.5766 13.0524 14.4677 12.7984 14.2863L10.6935 12.7258C10.621 12.6532 10.5121 12.6169 10.3669 12.6169C10.2581 12.6169 10.1492 12.6532 10.0403 12.7258L7.20968 14.8669C6.81048 15.1573 6.33871 14.6855 6.59274 14.2863L9.24194 10.1129C9.45968 9.71371 9.89516 9.45968 10.3669 9.45968C10.6935 9.45968 10.9839 9.56855 11.2016 9.75L13.3065 11.3105C13.379 11.3831 13.4879 11.4194 13.6331 11.4194C13.7419 11.4194 13.8508 11.3831 13.9597 11.3105L16.7903 9.16935C17.1895 8.87903 17.6613 9.35081 17.4073 9.75Z" fill="#1A285D"/>
</svg>
