<svg width="32" height="32" viewBox="0 0 32 32" fill="none" xmlns="http://www.w3.org/2000/svg">
<path d="M27.3425 20.9688L22.0822 18.7188C21.9413 18.6719 21.8004 18.625 21.6125 18.625C21.2838 18.625 20.955 18.8125 20.7671 19.0469L18.4188 21.9062C14.7554 20.1719 11.8434 17.2656 10.1057 13.6094L12.9706 11.2656C13.2055 11.0781 13.3933 10.75 13.3933 10.375C13.3933 10.2344 13.3464 10.0938 13.2994 9.95312L11.045 4.70312C10.8571 4.28125 10.4344 4 9.96478 4C9.91781 4 9.82387 4.04688 9.72994 4.04688L4.8454 5.17188C4.32877 5.3125 4 5.73438 4 6.25C4 18.2969 13.7221 28 25.7926 28C26.3092 28 26.7319 27.6719 26.8728 27.1562L28 22.2812C28 22.1875 28 22.0938 28 22.0469C28 21.5781 27.7182 21.1562 27.3425 20.9688Z" fill="white"/>
</svg>
